<svg 
 xmlns="http://www.w3.org/2000/svg"
 xmlns:xlink="http://www.w3.org/1999/xlink"
 width="0.208in" height="0.208in">
<path fill-rule="evenodd"  fill="rgb(69, 177, 244)"
 d="M14.870,14.235 L11.224,10.590 C12.202,9.465 12.794,7.999 12.794,6.396 C12.794,2.867 9.923,-0.000 6.397,-0.000 C2.867,-0.000 -0.000,2.870 -0.000,6.396 C-0.000,9.921 2.871,12.791 6.397,12.791 C8.000,12.791 9.467,12.199 10.592,11.222 L14.238,14.867 C14.324,14.953 14.441,15.000 14.554,15.000 C14.667,15.000 14.783,14.957 14.870,14.867 C15.043,14.694 15.043,14.408 14.870,14.235 ZM0.895,6.396 C0.895,3.362 3.363,0.898 6.394,0.898 C9.427,0.898 11.892,3.366 11.892,6.396 C11.892,9.426 9.427,11.897 6.394,11.897 C3.363,11.897 0.895,9.429 0.895,6.396 Z"/>
</svg>